<svg xmlns="http://www.w3.org/2000/svg" width="256" height="257" viewBox="0 0 256 257">
  <defs>
    <linearGradient id="r-gradient" x1="0%" y1="0%" x2="100%" y2="100%">
      <stop offset="0%" stop-color="#41D1FF" />
      <stop offset="100%" stop-color="#BD34FE" />
    </linearGradient>
    <linearGradient id="bolt-gradient" x1="0%" y1="0%" x2="0%" y2="100%">
      <stop offset="0%" stop-color="#FFEA83" />
      <stop offset="100%" stop-color="#FFA800" />
    </linearGradient>
  </defs>
  <!-- Stylized R -->
  <path fill="url(#r-gradient)" d="M50 30h80c40 0 70 20 70 60s-30 60-70 60H90v70H50V30zm40 80h40c20 0 30-10 30-20s-10-20-30-20H90v40z" />
  <path fill="url(#r-gradient)" d="M130 150l60 80h-50l-50-65 40-15z" />
  <!-- Integrated Bolt -->
  <path fill="url(#bolt-gradient)" d="M140 10l-30 60h25l-40 80 80-90h-25l40-50z" />
</svg>